#!OML:ASF H:\Terrain\Patient Classification 1\Walking\liu\liu.ASF
:FULLY-SPECIFIED
:DEGREES
174
root 8.92834 16.9864 2.94372 7.39992 -2.43648 -5.5059
lowerback -5.5967 1.70573 2.49526
upperback -1.19838 2.05444 3.36628
thorax 1.86623 1.03258 2.21278
lowerneck -22.6076 -4.20991 -12.9611
upperneck 24.0689 -5.0131 12.8753
head 12.4032 -1.78053 6.30119
rclavicle -2.01269e-015 -1.11319e-014
rhumerus -26.7861 23.4714 -85.571
rradius 36.8745
rwrist -18.9054
rhand -28.0206 -30.4832
rfingers 7.12502
rthumb -1.40585 -60.4583
lclavicle -2.01269e-015 -1.11319e-014
lhumerus -41.6997 4.71737 82.521
lradius 15.3773
lwrist -15.5162
lhand -11.2036 -24.3261
lfingers 7.12502
lthumb 14.8243 5.12362
rfemur 0.131961 -2.25242 31.4636
rtibia 15.2513
rfoot -11.9092 8.91867
rtoes -9.45474
lfemur -39.138 9.31047 -18.7084
ltibia 37.9392
lfoot -12.9514 12.1928
ltoes -9.83493
175
root 8.93277 16.9687 3.1331 7.49755 -2.696 -5.68808
lowerback -5.56655 1.82249 2.71268
upperback -1.17762 2.19846 3.32891
thorax 1.87758 1.10542 2.06231
lowerneck -22.7869 -4.21158 -12.7333
upperneck 24.0841 -5.01422 12.6574
head 12.4313 -1.78157 6.17436
rclavicle -2.19906e-014 -1.63003e-014
rhumerus -26.0577 23.9666 -85.3956
rradius 37.805
rwrist -19.5064
rhand -28.5683 -31.334
rfingers 7.12502
rthumb -1.93478 -61.3049
lclavicle -2.19906e-014 -1.63003e-014
lhumerus -42.6581 6.356 80.7539
lradius 14.8653
lwrist -17.1144
lhand -9.89067 -22.753
lfingers 7.12502
lthumb 16.0889 6.59905
rfemur 1.09235 -2.36587 31.5094
rtibia 14.5388
rfoot -11.9184 9.12245
rtoes -11.1853
lfemur -39.267 8.97679 -18.4008
ltibia 34.4764
lfoot -12.5535 12.1451
ltoes -11.1905
176
root 8.94353 16.9529 3.33383 7.63952 -3.11137 -5.83564
lowerback -5.69966 1.99853 2.95461
upperback -1.11647 2.40987 3.26759
thorax 2.02427 1.21269 1.8862
lowerneck -22.9667 -4.20795 -12.6705
upperneck 24.1223 -5.00551 12.6319
head 12.4784 -1.77002 6.15841
rclavicle 3.20043e-014 7.95139e-015
rhumerus -25.3104 24.1726 -85.1104
rradius 38.8128
rwrist -19.6549
rhand -28.6888 -29.3288
rfingers 7.12502
rthumb -2.05111 -59.2987
lclavicle 3.20043e-014 7.95139e-015
lhumerus -43.578 7.80798 79.0608
lradius 14.2465
lwrist -18.6083
lhand -9.46582 -21.9143
lfingers 7.12502
lthumb 16.498 7.40426
rfemur 2.23064 -2.5739 31.4232
rtibia 13.5566
rfoot -11.6289 9.5014
rtoes -12.8418
lfemur -39.3792 8.65009 -18.0638
ltibia 31.0809
lfoot -12.211 11.6884
ltoes -11.3263
177
root 8.95361 16.9353 3.52807 7.86492 -3.56181 -6.20544
lowerback -5.72835 2.1494 3.27909
upperback -1.12574 2.58736 3.36711
thorax 2.03856 1.30265 1.82238
lowerneck -22.8944 -4.13749 -12.8293
upperneck 23.9196 -4.88499 12.8
head 12.3745 -1.71052 6.26405
rclavicle -1.85615e-014 1.23246e-014
rhumerus -24.5299 24.7668 -84.7479
rradius 39.5288
rwrist -20.1651
rhand -28.4256 -26.3758
rfingers 7.12502
rthumb -1.79697 -56.348
lclavicle -1.85615e-014 1.23246e-014
lhumerus -44.5794 9.66867 77.1041
lradius 13.3096
lwrist -20.9262
lhand -9.88276 -22.1507
lfingers 7.12502
lthumb 16.0965 7.20081
rfemur 3.22683 -2.56136 31.5923
rtibia 12.6056
rfoot -10.9678 9.95613
rtoes -12.9225
lfemur -39.5342 8.11343 -17.2906
ltibia 27.7164
lfoot -11.7831 11.1429
ltoes -11.1406
178
root 8.97566 16.9182 3.74433 7.89089 -4.18896 -6.51251
lowerback -5.6966 2.27021 3.57689
upperback -1.16018 2.72998 3.51007
thorax 1.99114 1.37437 1.81255
lowerneck -22.3995 -3.967 -12.9697
upperneck 23.56 -4.60239 12.7445
head 12.0915 -1.61513 6.2892
rclavicle 8.05078e-015 -3.89618e-014
rhumerus -24.1228 25.649 -84.5392
rradius 40.746
rwrist -20.4394
rhand -28.5498 -30.139
rfingers 7.12502
rthumb -1.91689 -60.1101
lclavicle 8.05078e-015 -3.89618e-014
lhumerus -46.1238 11.4376 75.1097
lradius 12.3996
lwrist -23.8508
lhand -11.822 -23.5674
lfingers 7.12502
lthumb 14.2285 5.92526
rfemur 4.52253 -2.73342 31.4714
rtibia 11.6018
rfoot -10.1395 10.9528
rtoes -12.2108
lfemur -39.2527 6.43953 -15.9459
ltibia 24.5725
lfoot -11.9888 12.3659
ltoes -12.6351
179
root 8.97706 16.8936 3.92815 8.17872 -4.11522 -6.38684
lowerback -5.69118 2.17992 3.30527
upperback -1.34407 2.63552 3.51424
thorax 1.78644 1.32429 1.95541
lowerneck -22.4934 -3.91376 -12.9262
upperneck 23.6764 -4.48565 12.5604
head 12.1298 -1.58029 6.23433
rclavicle 2.78299e-014 -5.1684e-015
rhumerus -23.8308 26.0538 -84.4176
rradius 41.9794
rwrist -20.6909
rhand -29.598 -32.0064
rfingers 7.12502
rthumb -2.92925 -61.966
lclavicle 2.78299e-014 -5.1684e-015
lhumerus -47.8076 13.8721 72.1186
lradius 11.2403
lwrist -28.8814
lhand -14.7312 -25.0557
lfingers 7.12502
lthumb 11.424 4.61302
rfemur 5.51223 -2.59972 31.2734
rtibia 10.4259
rfoot -9.6277 10.8401
rtoes -11.145
lfemur -39.6912 4.9176 -15.2427
ltibia 21.8119
lfoot -11.9447 12.7417
ltoes -15.3692
180
root 9.00044 16.8805 4.15408 8.06125 -4.83711 -6.39679
lowerback -5.74844 2.4926 3.52956
upperback -1.16519 3.02905 3.3621
thorax 2.01917 1.52353 1.71121
lowerneck -22.9723 -4.02305 -12.9122
upperneck 23.9532 -4.62205 12.6012
head 12.3564 -1.62438 6.24592
rclavicle -2.07233e-014 -2.22639e-014
rhumerus -23.335 26.2804 -84.2484
rradius 43.1891
rwrist -21.564
rhand -31.0445 -34.1058
rfingers 7.12502
rthumb -4.32606 -64.0416
lclavicle -2.07233e-014 -2.22639e-014
lhumerus -49.0309 16.0633 69.1334
lradius 9.70234
lwrist -34.436
lhand -17.2478 -25.931
lfingers 7.12502
lthumb 8.99628 3.85719
rfemur 7.11264 -1.88173 30.8934
rtibia 9.05442
rfoot -8.84607 10.798
rtoes -10.2705
lfemur -39.37 2.40402 -13.4661
ltibia 19.5434
lfoot -12.2136 13.8107
ltoes -15.6212
181
root 9.01722 16.8677 4.36463 8.11067 -5.23385 -6.72365
lowerback -5.7431 2.71655 3.98358
upperback -1.1281 3.29801 3.33661
thorax 2.08061 1.66035 1.45481
lowerneck -23.1437 -4.13799 -13.0534
upperneck 24.0616 -4.77411 12.777
head 12.4678 -1.67981 6.32438
rclavicle -1.31446e-014 1.27222e-014
rhumerus -22.6027 26.2808 -83.8537
rradius 43.4689
rwrist -21.5183
rhand -29.7313 -30.5204
rfingers 7.12502
rthumb -3.05801 -60.4782
lclavicle -1.31446e-014 1.27222e-014
lhumerus -50.1516 18.1654 66.0368
lradius 10.4852
lwrist -32.3923
lhand -10.0733 -23.7671
lfingers 7.12502
lthumb 15.913 5.5991
rfemur 8.61319 -1.40526 30.9642
rtibia 7.4915
rfoot -7.7898 10.7346
rtoes -10.2916
lfemur -39.7486 2.82669 -13.0208
ltibia 17.9216
lfoot -11.7853 11.5174
ltoes -15.7854
182
root 9.02755 16.86 4.56866 8.32898 -5.41936 -6.72923
lowerback -5.97843 2.78989 3.99852
upperback -1.09416 3.37846 3.28285
thorax 2.25154 1.70214 1.41165
lowerneck -23.2789 -4.12018 -12.9259
upperneck 24.0398 -4.72384 12.5983
head 12.4687 -1.6638 6.23775
rclavicle -6.31141e-015 -1.31198e-014
rhumerus -21.684 26.5808 -83.4704
rradius 43.7313
rwrist -21.5917
rhand -29.4372 -28.5257
rfingers 7.12502
rthumb -2.7739 -58.4874
lclavicle -6.31141e-015 -1.31198e-014
lhumerus -51.6766 19.9964 63.094
lradius 10.1295
lwrist -35.458
lhand -9.9801 -23.5936
lfingers 7.12502
lthumb 16.0028 5.76541
rfemur 10.5209 -1.13711 30.762
rtibia 4.8082
rfoot -6.19435 10.5141
rtoes -10.2428
lfemur -40.6075 2.93169 -12.9653
ltibia 17.099
lfoot -11.9835 10.5116
ltoes -14.741
183
root 9.03527 16.8537 4.7859 8.22666 -5.89142 -6.64002
lowerback -6.11147 2.90154 3.824
upperback -0.840674 3.51826 3.25186
thorax 2.58031 1.77466 1.50511
lowerneck -23.3518 -4.03739 -12.5692
upperneck 23.8068 -4.56882 12.1201
head 12.3422 -1.61712 5.99534
rclavicle 2.12948e-014 -5.96354e-015
rhumerus -20.7585 26.9973 -83.0827
rradius 44.3568
rwrist -21.9468
rhand -30.0141 -28.1904
rfingers 7.12502
rthumb -3.33105 -58.1441
lclavicle 2.12948e-014 -5.96354e-015
lhumerus -52.0245 19.9261 63.1269
lradius 9.62226
lwrist -35.3313
lhand -9.94792 -22.5934
lfingers 7.12502
lthumb 16.0338 6.76313
rfemur 13.8954 -0.662544 30.512
rtibia -3.81667e-014
rfoot -3.72332 9.94842
rtoes -10.9636
lfemur -40.9532 3.25186 -13.073
ltibia 16.6638
lfoot -13.2848 10.2122
ltoes -11.6676
